<svg xmlns="http://www.w3.org/2000/svg" width="512" height="512" viewBox="0 0 512 512"><path d="M220.745 64.002c-27.018 0-65.95 6.393-94.456 29.924-21.484 18.536-31.964 44.092-31.964 67.1 0 39.054 29.988 78.645 82.94 78.645 5 0 10.47-.492 15.977-1.003-2.472 6.017-4.972 11.025-4.972 19.53 0 15.51 7.97 25.024 14.995 34.034-22.5 1.548-64.502 4.04-95.466 23.07-29.49 17.54-38.468 43.064-38.468 61.08 0 37.08 34.953 71.62 107.427 71.62 85.94 0 131.44-47.557 131.44-94.633.004-34.59-19.977-51.615-41.97-70.142v-.002l-18.006-13.983c-5.484-4.548-12.985-10.553-12.985-21.543 0-11.037 7.5-18.053 14.01-24.55 20.976-16.51 41.935-34.084 41.935-71.114 0-38.08-23.96-58.11-35.444-67.613h30.964l32.5-20.42h-98.46zm-36.46 18.918c41.45 0 62.948 56.078 62.948 92.145 0 9.024-.996 25.015-12.488 36.575-8.038 8.02-21.487 13.997-33.974 13.997-42.992 0-62.468-55.58-62.468-89.116 0-13.055 2.47-26.536 10.975-37.066 8.016-10.027 21.976-16.533 35.01-16.533zm183.41 91.882v50.07H317.71v25.006h49.986v50.376h24.73V249.88h50.24V224.87h-50.24v-50.07h-24.732zm-158.93 131.47c4.996 0 7.496 0 11.474.502 38.007 27.05 54.503 40.53 54.503 66.136 0 31.01-25.492 54.102-73.478 54.102-53.464 0-87.943-25.575-87.943-61.137 0-35.552 31.97-47.58 42.97-51.56 20.975-7.06 47.97-8.043 52.473-8.043z" fill="rgba(0,0,0,.3)"/></svg>