<svg xmlns="http://www.w3.org/2000/svg" width="512" height="512" viewBox="0 0 512 512"><path d="M346.5 85.563c-20.498 0-40.99 7.772-56.563 23.343l-2.25 2.28-54.312 54.314L256 188.125l56.563-56.594c18.998-18.998 48.906-18.998 67.906 0 18.998 19 18.998 48.907 0 67.907l-67.908 67.875c-18.998 19-48.874 19-67.875 0-4.648-4.648-8.094-9.906-10.437-15.53l-29.53 12.28c3.92 9.412 9.722 18.255 17.343 25.875 31.143 31.143 81.98 31.144 113.125 0l67.906-67.875c31.142-31.143 31.143-82.013 0-113.156-15.572-15.57-36.096-23.344-56.594-23.344zM233.375 198.72c-20.498 0-40.99 7.77-56.563 23.343l-67.906 67.875c-31.142 31.143-31.143 82.013 0 113.156 31.144 31.142 82.013 31.143 113.156 0l56.563-56.594L256 323.875l-56.563 56.594c-18.998 18.998-48.906 18.998-67.906 0-18.998-19-18.998-48.907 0-67.908L188.126 256l11.313-11.313c18.998-18.998 48.874-19 67.875 0 4.648 4.65 8.094 9.907 10.437 15.532l29.53-12.283c-3.92-9.41-9.722-18.254-17.342-25.875-15.572-15.57-36.065-23.343-56.563-23.343z" fill="rgba(0,0,0,.5)"/></svg>