<svg xmlns="http://www.w3.org/2000/svg" width="100px" height="60px">
<title>dskd logo mark</title>
<style>path{fill:rgba(0,0,0,.15)}</style>
<path d="M11.5,60C5.1,60,0,55.1,0,48.8V36.9c0-6.6,4.5-9.9,9.5-12.5c0,0,0.4-0.2,1-0.2c0.5,0,1.2,0.2,1.6,1.1 c0.7,1.3-0.2,2.3-0.7,2.7C6.3,30.6,4,33.4,4,36.9v11.9C4,53,7.2,56,11.5,56H19V2c0-1.2,0.8-2,2-2c1.2,0,2,0.8,2,2v56.5 c0,1.2-0.6,1.5-1.8,1.5H11.5z"/>
<path d="M36.5,60c-0.6,0-1.2,0-1.7-0.1c-3.7-0.8-6.4-2.7-8-5.5c-0.6-1-0.2-2.2,0.8-2.8c0.3-0.2,0.7-0.3,1-0.3c0.7,0,1.4,0.4,1.8,1 c1.2,2,2.9,3.2,5.1,3.5c0.5,0.1,0.9,0.1,1.3,0.1c1.7,0,3.2-0.6,4.6-1.9c1.7-1.6,2.4-3.5,2.3-5.7c-0.1-2.2-1.1-4-3-5.3l-9-6.4 c-2.6-1.9-4.3-4.7-4.6-8c-0.2-3.3,1-6.2,3.5-8.6c1.9-1.8,4.4-2.8,7.1-2.8c0.6,0,1.1,0,1.7,0.1c3.2,0.5,6,2.4,7.7,5.3 c0.3,0.5,0.4,1,0.2,1.5c-0.1,0.5-0.4,1-0.9,1.2c-0.3,0.2-0.7,0.3-1,0.3c-0.7,0-1.4-0.4-1.8-1c-1.1-1.9-2.7-3-4.8-3.3 c-0.4,0-0.7-0.1-1.1-0.1c-1.7,0-3.2,0.6-4.6,1.8c-1.5,1.3-2.2,3.2-2.1,5.4c0.2,2.2,1.1,3.8,2.9,5l9,6.3c2.8,2,4.4,4.9,4.7,8.4 c0.3,3.4-1,6.6-3.6,8.9C42,59,39.4,60,36.5,60z"/>
<path d="M74.7,60c-0.7,0-1.4-0.4-1.8-1L60.9,37.3L55,43.8V58c0,1.2-0.8,2-2,2c-1.2,0-2-0.8-2-2V2c0-1.2,0.8-2,2-2c1.2,0,2,0.8,2,2 v35.8l18-20c0.4-0.4,1-0.6,1.6-0.6c0.5,0,1,0.2,1.4,0.5c0.4,0.4,0.6,0.9,0.7,1.4c0,0.5-0.1,1-0.5,1.4L63.8,34.2L76.4,57 c0.3,0.5,0.3,1,0.2,1.5c-0.1,0.5-0.5,1-1,1.2C75.4,59.9,75,60,74.7,60z"/>
<path d="M88.5,60C82.2,60,77,54.9,77,48.5V36.7c0-6.6,4.5-9.9,9.6-12.5c0,0,0.4-0.2,1-0.2c0.5,0,1.2,0.2,1.7,1.1 c0.7,1.3-0.2,2.3-0.8,2.7c-5.1,2.6-7.4,5.4-7.4,8.9v11.9c0,4.3,3.3,7.5,7.5,7.5H96V2c0-1.2,0.8-2,2-2s2,0.8,2,2v56.3 c0,1.2-0.5,1.7-1.7,1.7H88.5z"/>
</svg>