<?xml version="1.0" encoding="utf-8"?>
<!-- Generator: Adobe Illustrator 15.0.2, SVG Export Plug-In . SVG Version: 6.00 Build 0)  -->
<!DOCTYPE svg PUBLIC "-//W3C//DTD SVG 1.1//EN" "http://www.w3.org/Graphics/SVG/1.1/DTD/svg11.dtd">
<svg version="1.1" id="レイヤー_1" xmlns="http://www.w3.org/2000/svg" xmlns:xlink="http://www.w3.org/1999/xlink" x="0px"
	 y="0px" width="100px" height="60px" viewBox="0 0 100 60" enable-background="new 0 0 100 60" xml:space="preserve">
<path fill-opacity="0.15" d="M11.457,60C5.111,60,0,55.139,0,48.793V36.926c0-6.647,4.506-9.93,9.511-12.487
	C9.527,24.43,9.907,24.2,10.462,24.2c0.506,0,1.176,0.192,1.643,1.108c0.682,1.338-0.152,2.339-0.747,2.682
	C6.258,30.595,4,33.433,4,36.926v11.867C4,53.045,7.205,56,11.457,56H19V1.997C19,0.784,19.787,0,21,0s2,0.784,2,1.997v56.505
	C23,59.716,22.38,60,21.167,60H11.457z"/>
<path fill-opacity="0.15" d="M36.53,60c-0.571,0-1.154-0.042-1.733-0.125c-3.672-0.778-6.416-2.667-7.952-5.467
	c-0.555-1.002-0.213-2.217,0.778-2.767c0.312-0.174,0.662-0.265,1.01-0.265c0.738,0,1.394,0.389,1.757,1.042
	c1.156,2.023,2.857,3.19,5.056,3.466c0.457,0.076,0.897,0.113,1.318,0.113c1.745,0,3.248-0.618,4.596-1.892
	c1.703-1.608,2.44-3.479,2.253-5.722c-0.093-2.223-1.102-4.02-3.002-5.349l-9.03-6.41c-2.646-1.861-4.269-4.719-4.571-8.046
	c-0.196-3.34,0.973-6.248,3.474-8.65c1.899-1.819,4.438-2.821,7.148-2.821c0.567,0,1.141,0.045,1.705,0.133
	c3.231,0.489,6.021,2.41,7.655,5.269c0.271,0.488,0.357,1.033,0.245,1.538c-0.117,0.529-0.445,0.967-0.923,1.232
	c-0.312,0.173-0.662,0.265-1.011,0.265c-0.738,0-1.395-0.39-1.756-1.042c-1.137-1.892-2.742-2.995-4.767-3.271
	c-0.359-0.047-0.716-0.07-1.06-0.07c-1.709,0-3.246,0.591-4.567,1.757c-1.524,1.345-2.247,3.173-2.148,5.434
	c0.19,2.188,1.14,3.842,2.901,5.047l9.032,6.312c2.751,1.966,4.365,4.883,4.669,8.438c0.29,3.379-0.979,6.555-3.575,8.943
	C41.964,58.994,39.371,60,36.53,60z"/>
<path fill-opacity="0.15" d="M74.728,60c-0.697,0-1.396-0.397-1.779-1.012L60.896,37.344L55,43.804v14.179
	c0,1.213-0.787,1.997-2.001,1.997c-1.213,0-1.999-0.784-1.999-1.997V1.997C51,0.784,51.786,0,52.999,0C54.213,0,55,0.784,55,1.997
	V37.81l17.992-19.997c0.419-0.419,1.039-0.644,1.595-0.644c0.503,0,1.02,0.182,1.412,0.526c0.391,0.389,0.638,0.878,0.666,1.387
	c0.029,0.532-0.149,1.03-0.522,1.404L63.846,34.229l12.539,22.758c0.268,0.481,0.338,1.032,0.194,1.548
	c-0.144,0.521-0.488,0.953-0.969,1.22C75.358,59.912,75.049,60,74.728,60z"/>
<path fill-opacity="0.15" d="M88.543,60C82.197,60,77,54.889,77,48.543V36.676c0-6.647,4.55-9.93,9.555-12.487
	c0.015-0.008,0.417-0.239,0.972-0.239c0.507,0,1.188,0.192,1.654,1.108c0.682,1.338-0.19,2.34-0.785,2.682
	C83.296,30.345,81,33.183,81,36.676v11.867C81,52.795,84.291,56,88.543,56H96V1.997C96,0.784,96.786,0,98,0s2,0.784,2,1.997v56.255
	C100,59.466,99.466,60,98.252,60H88.543z"/>
</svg>
