<svg xmlns="http://www.w3.org/2000/svg" width="100" height="60" viewBox="0 0 100 60"><path fill-opacity=".15" d="M11.457 60C5.11 60 0 55.14 0 48.793V36.926c0-6.647 4.506-9.93 9.51-12.487.017-.01.397-.24.952-.24.506 0 1.176.192 1.643 1.108.682 1.338-.152 2.34-.747 2.682C6.258 30.595 4 33.433 4 36.926v11.867C4 53.045 7.205 56 11.457 56H19V1.997C19 .784 19.787 0 21 0s2 .784 2 1.997v56.505C23 59.716 22.38 60 21.167 60h-9.71zM36.53 60c-.57 0-1.154-.042-1.733-.125-3.672-.778-6.416-2.667-7.952-5.467-.555-1.002-.213-2.217.778-2.767.312-.173.662-.264 1.01-.264.738 0 1.394.39 1.757 1.042 1.156 2.023 2.857 3.19 5.056 3.466.457.076.897.113 1.318.113 1.745 0 3.248-.618 4.596-1.892 1.703-1.608 2.44-3.48 2.253-5.722-.093-2.223-1.102-4.02-3.002-5.35l-9.03-6.41c-2.645-1.86-4.268-4.718-4.57-8.045-.196-3.34.973-6.248 3.474-8.65 1.9-1.82 4.438-2.82 7.148-2.82.567 0 1.14.044 1.705.132 3.23.49 6.02 2.41 7.655 5.27.27.487.357 1.032.245 1.537-.117.53-.445.967-.923 1.232-.312.172-.662.264-1.01.264-.74 0-1.396-.39-1.757-1.042-1.137-1.892-2.742-2.995-4.767-3.27-.36-.048-.716-.07-1.06-.07-1.71 0-3.246.59-4.567 1.756-1.524 1.345-2.247 3.173-2.148 5.434.19 2.188 1.14 3.842 2.9 5.047l9.033 6.31c2.75 1.967 4.365 4.884 4.67 8.44.29 3.378-.98 6.554-3.576 8.942C41.964 58.994 39.372 60 36.53 60zM74.728 60c-.697 0-1.396-.397-1.78-1.012L60.897 37.344 55 43.804v14.18c0 1.212-.787 1.996-2 1.996-1.214 0-2-.784-2-1.997V1.997C51 .784 51.786 0 53 0c1.213 0 2 .784 2 1.997V37.81l17.992-19.997c.42-.42 1.04-.644 1.595-.644.503 0 1.02.18 1.412.525.39.39.637.878.665 1.387.03.532-.15 1.03-.522 1.404L63.846 34.23l12.54 22.757c.267.48.337 1.032.193 1.548-.145.52-.49.953-.97 1.22-.252.157-.56.245-.882.245zM88.543 60C82.197 60 77 54.89 77 48.543V36.676c0-6.647 4.55-9.93 9.555-12.487.015-.01.417-.24.972-.24.507 0 1.188.192 1.654 1.108.683 1.338-.19 2.34-.784 2.682-5.1 2.605-7.396 5.443-7.396 8.936v11.867C81 52.795 84.29 56 88.543 56H96V1.997C96 .784 96.786 0 98 0s2 .784 2 1.997v56.255c0 1.214-.534 1.748-1.748 1.748h-9.71z"/></svg>