<?xml version="1.0" encoding="utf-8"?>
<!-- Generator: Adobe Illustrator 15.0.2, SVG Export Plug-In . SVG Version: 6.00 Build 0)  -->
<!DOCTYPE svg PUBLIC "-//W3C//DTD SVG 1.1//EN" "http://www.w3.org/Graphics/SVG/1.1/DTD/svg11.dtd">
<svg version="1.1" id="レイヤー_1" xmlns="http://www.w3.org/2000/svg" xmlns:xlink="http://www.w3.org/1999/xlink" x="0px"
	 y="0px" width="50px" height="15px" viewBox="0 0 50 15" enable-background="new 0 0 50 15" xml:space="preserve">
<path fill-opacity="0.15" d="M9.575,4.559c-3.192,0-5.063,1.289-8.364,5.155H0.88L0,8.895c4.732-6.211,9.354-8.906,14.308-8.906
	c4.513,0,8.364,1.641,12.438,4.336c6.274,4.102,10.125,6.093,13.646,6.093c3.192,0,4.954-1.172,8.366-5.156h0.328l0.882,0.82
	c-4.732,6.211-9.354,8.907-14.309,8.907c-3.092,0-5.874-0.771-8.63-2.123c-1.265-0.622-2.525-1.366-3.806-2.213
	C16.84,6.55,13.097,4.559,9.575,4.559z"/>
</svg>
