<?xml version="1.0" encoding="utf-8"?>
<!-- Generator: Adobe Illustrator 22.0.1, SVG Export Plug-In . SVG Version: 6.00 Build 0)  -->
<svg version="1.1" id="logo" xmlns="http://www.w3.org/2000/svg" xmlns:xlink="http://www.w3.org/1999/xlink" x="0px" y="0px"
	 width="85px" height="65.2px" viewBox="0 0 85 65.2" enable-background="new 0 0 85 65.2" xml:space="preserve">
<path d="M52.5,65.2c-0.1,0-0.2,0-0.3,0c-5.7-0.8-10-2.5-13.6-4.7c-6.1,2.8-12.4,4.4-18.6,4.4c-14.4,0-18.4-5.8-19.4-8.3
	C-0.6,53.7,0,50.5,2.5,48c3.4-3.4,10.9-5.6,21.6-1.2c4.1,1.8,7.4,4,10.5,6.2c1.4,1,2.7,2,4.2,2.9c18-9,36.2-29.3,42.4-54.2
	c0.3-1.1,2.3-1.5,2.3-1.5s1.7,1.4,1.5,2.3C79.6,24.2,62.7,47.3,43,58.4c2.7,1.4,6,2.3,9.9,2.9c1.1,0.1,1.7,2.2,1.7,2.2
	S53.5,65.2,52.5,65.2z M12.7,48.3c-3.6,0-6.1,1.1-7.5,2.5c-1.3,1.3-1.7,2.8-1.1,4.4c1.2,2.8,6,5.9,15.8,5.9c4.6,0,9.5-1.1,14.5-3.1
	c-0.8-0.5-1.6-1.1-2.2-1.6c-3.1-2.2-6-4.3-9.8-5.9C18.7,48.9,15.5,48.3,12.7,48.3z"/>
</svg>
