<?xml version="1.0" encoding="UTF-8" standalone="no"?>
<svg
  xmlns="http://www.w3.org/2000/svg"
  version="1.1"
  width="100"
  height="60"
  viewBox="0 0 100 60">
  <path
    d="M21,1c0.7,0,1,0.3,1,1v56.5c0,0.3-0.1,0.4,0,0.4c0,0-0.2,0.1-0.8,0.1h-9.7C5.6,59,1,54.5,1,48.8V36.9 c0-3.6,1.1-7.6,9-11.6c0,0,0.2-0.1,0.5-0.1c0.2,0,0.5,0.1,0.8,0.6c0.4,0.8-0.2,1.3-0.3,1.4C5.5,29.9,3,33,3,36.9v11.9 c0,4.8,3.6,8.2,8.5,8.2H19h1v-1V2C20,1.3,20.3,1,21,1 M21,0c-1.2,0-2,0.8-2,2v54h-7.5C7.2,56,4,53,4,48.8V36.9 c0-3.5,2.3-6.3,7.4-8.9c0.6-0.3,1.4-1.3,0.7-2.7c-0.5-0.9-1.1-1.1-1.6-1.1c-0.6,0-0.9,0.2-1,0.2C4.5,27,0,30.3,0,36.9v11.9 C0,55.1,5.1,60,11.5,60h9.7c1.2,0,1.8-0.3,1.8-1.5V2C23,0.8,22.2,0,21,0L21,0z"
    style="fill:rgba(0,0,0,.15)"/>
  <path
    d="M37.6,18.1c0.5,0,1,0,1.6,0.1c2.9,0.4,5.5,2.2,6.9,4.8c0.2,0.3,0.2,0.6,0.1,0.8c-0.1,0.2-0.2,0.4-0.4,0.6 c-0.2,0.1-0.3,0.1-0.5,0.1c-0.4,0-0.7-0.2-0.9-0.6c-1.3-2.2-3.1-3.4-5.5-3.7c-0.4-0.1-0.8-0.1-1.2-0.1c-2,0-3.7,0.7-5.2,2 c-1.8,1.6-2.6,3.6-2.5,6.3c0.2,2.5,1.3,4.4,3.3,5.8l9,6.3c2.5,1.8,4,4.5,4.3,7.7c0.3,3.1-0.9,5.9-3.3,8.1 c-1.9,1.7-4.2,2.6-6.8,2.6c-0.5,0-1,0-1.6-0.1c-3.4-0.7-5.9-2.4-7.3-5c-0.3-0.5-0.1-1.1,0.4-1.4c0.2-0.1,0.3-0.1,0.5-0.1 c0.4,0,0.7,0.2,0.9,0.5c1.3,2.3,3.3,3.6,5.8,4c0.5,0.1,1,0.1,1.5,0.1c2,0,3.7-0.7,5.3-2.2c1.9-1.8,2.8-4,2.6-6.5 c-0.1-2.5-1.3-4.6-3.4-6.1l-9-6.4c-2.4-1.7-3.9-4.3-4.1-7.3c-0.2-3,0.9-5.7,3.2-7.9C32.9,19,35.2,18.1,37.6,18.1 M37.6,17.1 c-2.7,0-5.2,1-7.1,2.8c-2.5,2.4-3.7,5.3-3.5,8.6c0.3,3.3,1.9,6.2,4.6,8l9,6.4c1.9,1.3,2.9,3.1,3,5.3c0.2,2.2-0.6,4.1-2.3,5.7 C40,55.4,38.5,56,36.8,56c-0.4,0-0.9,0-1.3-0.1c-2.2-0.3-3.9-1.4-5.1-3.5c-0.4-0.7-1-1-1.8-1c-0.3,0-0.7,0.1-1,0.3 c-1,0.5-1.3,1.8-0.8,2.8c1.5,2.8,4.3,4.7,8,5.5C35.4,60,36,60,36.5,60c2.8,0,5.4-1,7.5-2.9c2.6-2.4,3.9-5.6,3.6-8.9 c-0.3-3.6-1.9-6.5-4.7-8.4l-9-6.3c-1.8-1.2-2.7-2.9-2.9-5c-0.1-2.3,0.6-4.1,2.1-5.4c1.3-1.2,2.9-1.8,4.6-1.8c0.3,0,0.7,0,1.1,0.1 c2,0.3,3.6,1.4,4.8,3.3c0.4,0.7,1,1,1.8,1c0.3,0,0.7-0.1,1-0.3c0.5-0.3,0.8-0.7,0.9-1.2c0.1-0.5,0-1-0.2-1.5 c-1.6-2.9-4.4-4.8-7.7-5.3C38.8,17.2,38.2,17.1,37.6,17.1L37.6,17.1z"
    style="fill:rgba(0,0,0,.15)"/>
  <path
    d="M53,1c0.7,0,1,0.3,1,1v35.8v2.6l1.7-1.9l18-20c0.2-0.2,0.6-0.3,0.9-0.3c0.3,0,0.5,0.1,0.7,0.3c0.2,0.2,0.3,0.5,0.3,0.7 c0,0.2,0,0.4-0.2,0.6l0,0l0,0L63.1,33.6l-0.5,0.5l0.3,0.6l12.5,22.8c0.1,0.3,0.2,0.5,0.1,0.8c-0.1,0.3-0.2,0.5-0.5,0.6l0,0l0,0 C75,59,74.9,59,74.7,59c-0.3,0-0.7-0.2-0.9-0.5l-12-21.6l-0.7-1.2l-0.9,1l-5.9,6.5L54,43.4v0.4V58c0,0.7-0.3,1-1,1 c-0.7,0-1-0.3-1-1V2C52,1.3,52.3,1,53,1 M53,0c-1.2,0-2,0.8-2,2v56c0,1.2,0.8,2,2,2c1.2,0,2-0.8,2-2V43.8l5.9-6.5L72.9,59 c0.4,0.6,1.1,1,1.8,1c0.3,0,0.6-0.1,0.9-0.2c0.5-0.3,0.8-0.7,1-1.2c0.1-0.5,0.1-1.1-0.2-1.5L63.8,34.2l12.3-13.7 c0.4-0.4,0.6-0.9,0.5-1.4c0-0.5-0.3-1-0.7-1.4c-0.4-0.3-0.9-0.5-1.4-0.5c-0.6,0-1.2,0.2-1.6,0.6l-18,20V2C55,0.8,54.2,0,53,0L53,0
    z"
    style="fill:rgba(0,0,0,.15)"/>
  <path
    d="M98,1c0.7,0,1,0.3,1,1v56.3c0,0.7-0.1,0.7-0.7,0.7h-9.7C82.7,59,78,54.3,78,48.5V36.7c0-5.8,3.6-8.8,9-11.6 c0,0,0.2-0.1,0.5-0.1c0.2,0,0.5,0.1,0.8,0.6c0.4,0.9-0.3,1.3-0.3,1.3c-5.4,2.8-7.9,5.9-7.9,9.8v11.9c0,4.7,3.8,8.5,8.5,8.5H96h1 v-1V2C97,1.3,97.3,1,98,1 M98,0c-1.2,0-2,0.8-2,2v54h-7.5c-4.3,0-7.5-3.2-7.5-7.5V36.7c0-3.5,2.3-6.3,7.4-8.9 c0.6-0.3,1.5-1.3,0.8-2.7c-0.5-0.9-1.1-1.1-1.7-1.1c-0.6,0-1,0.2-1,0.2c-5,2.6-9.6,5.8-9.6,12.5v11.9C77,54.9,82.2,60,88.5,60h9.7 c1.2,0,1.7-0.5,1.7-1.7V2C100,0.8,99.2,0,98,0L98,0z"
    style="fill:rgba(0,0,0,.15)"/>
</svg>
